<svg xmlns="http://www.w3.org/2000/svg" width="200" height="40" viewBox="0,0,200,40"><path fill="#333" d="M141.02 27.22L131.65 17.10L131.62 17.06Q132.48 20.78 132.48 24.51L132.45 24.48L132.49 24.52Q132.58 30.59 130.52 36.14L130.41 36.03L130.40 36.02Q129.47 36.42 127.22 37.18L127.16 37.12L127.08 37.04Q129.96 31.32 129.96 24.62L130.05 24.70L129.89 24.55Q129.96 15.97 125.46 8.55L125.48 8.56L125.47 8.55Q125.87 8.68 126.55 9.10L126.55 9.10L126.59 9.14Q138.78 20.46 146.63 29.71L146.55 29.63L146.46 29.55Q146.17 27.13 146.17 24.69L146.20 24.71L146.31 24.82Q146.27 17.55 148.78 11.35L148.70 11.26L148.75 11.31Q151.01 10.72 152.61 10.03L152.77 10.19L152.77 10.20Q149.43 16.33 149.13 23.49L149.09 23.46L148.98 23.34Q148.67 30.69 151.64 36.86L151.82 37.03L151.80 37.02Q151.12 36.83 150.70 36.64L150.68 36.61L150.68 36.61Q146.25 32.80 141.04 27.24L140.94 27.15ZM154.28 40.06L154.37 40.15L154.42 40.21Q154.78 40.26 155.20 40.45L155.30 40.55L156.08 40.84L156.08 40.84Q150.88 33.85 150.88 24.48L151.02 24.62L150.91 24.51Q150.97 17.34 154.28 11.10L154.15 10.96L154.34 11.15Q153.64 11.33 152.23 11.94L152.12 11.82L152.12 11.83Q152.57 11.06 153.40 9.49L153.35 9.45L153.37 9.46Q150.94 10.38 148.50 10.95L148.42 10.86L148.53 10.98Q145.86 17.41 145.86 24.83L145.80 24.77L145.96 24.93Q145.90 26.74 146.09 28.72L146.12 28.75L146.01 28.64Q141.36 22.96 136.60 18.35L136.74 18.49L126.65 8.78L126.55 8.68Q125.94 8.33 124.72 7.76L124.67 7.72L124.75 7.79Q129.60 15.50 129.60 24.60L129.69 24.69L129.63 24.63Q129.55 31.67 126.47 37.68L126.65 37.87L126.65 37.87Q126.87 37.67 128.51 37.06L128.43 36.99L128.58 37.13Q128.16 37.82 127.33 39.30L127.31 39.29L127.44 39.42Q128.64 38.76 132.11 37.96L132.25 38.10L132.18 38.03Q134.52 31.91 134.52 24.72L134.53 24.74L134.56 24.76Q134.46 22.57 134.23 20.43L134.32 20.53L134.16 20.36Q145.83 33.37 154.43 40.22Z"/><path fill="#444" d="M103.52 10.80L103.50 10.77L103.66 10.93Q105.51 15.76 106.08 20.93L106.10 20.95L106.12 20.97Q109.84 16.85 115.74 12.02L115.61 11.89L115.66 11.93Q118.86 11.63 121.49 10.83L121.50 10.84L114.96 16.48L114.94 16.47Q111.49 19.38 108.64 22.23L108.55 22.15L108.65 22.24Q116.65 31.43 121.71 36.15L121.71 36.15L121.76 36.20Q118.57 35.17 116.24 35.02L116.19 34.96L116.19 34.96Q110.48 29.63 106.18 23.81L106.08 23.71L106.17 23.80Q106.25 30.39 104.38 35.72L104.44 35.78L104.39 35.72Q104.26 35.86 103.76 36.05L103.67 35.96L103.65 36.13L103.62 36.10Q103.54 36.24 100.99 37.16L100.95 37.12L100.83 37.00Q103.79 30.44 103.44 22.98L103.49 23.03L103.55 23.08Q103.18 15.71 99.64 9.20L99.62 9.18L100.18 9.48L100.58 9.76L100.72 9.86L100.60 9.74Q101.29 10.09 103.50 10.78ZM103.89 10.60L103.89 10.60L103.93 10.64Q101.60 10.02 98.97 8.49L98.90 8.42L98.89 8.42Q103.27 15.80 103.27 24.75L103.28 24.76L103.26 24.73Q103.20 31.68 100.23 37.74L100.29 37.79L102.31 36.92L102.26 36.87Q101.86 37.88 101.17 39.17L101.27 39.27L101.17 39.17Q103.54 38.49 105.48 38.07L105.48 38.07L105.59 37.95L105.48 37.85Q105.76 37.82 106.33 37.67L106.42 37.75L106.33 37.66Q107.98 31.74 108.09 26.94L108.13 26.98L108.08 26.93Q110.07 29.34 111.90 31.21L112.09 31.39L112.05 31.35Q113.09 32.32 116.09 35.29L116.19 35.38L116.19 35.39L116.20 35.39Q117.26 36.26 119.13 37.86L119.05 37.78L119.12 37.86Q122.98 38.55 126.44 40.27L126.38 40.20L126.40 40.22Q117.08 31.63 110.84 24.20L110.93 24.30L110.88 24.25Q115.38 20.06 124.13 11.46L124.11 11.43L124.09 11.42Q121.56 12.58 119.54 12.96L119.46 12.87L119.41 12.83Q120.82 12.03 123.14 10.01L123.13 10.00L122.96 9.83Q119.01 11.40 115.66 11.59L115.56 11.49L115.52 11.45Q112.71 13.78 107.84 18.46L107.80 18.42L107.70 18.32Q107.31 15.73 106.74 13.18L106.77 13.21L106.77 13.21Q105.63 13.10 104.64 12.76L104.67 12.78L104.68 12.79Q104.45 12.03 103.88 10.58Z"/><path fill="#111" d="M162.08 14.21L162.07 14.20L162.11 14.24Q163.26 18.74 163.41 21.94L163.26 21.79L163.26 21.79Q163.79 21.86 168.17 21.97L168.24 22.05L168.18 21.99Q170.80 22.10 171.18 18.63L171.21 18.66L171.11 18.56Q171.38 16.89 170.47 15.98L170.45 15.95L170.35 15.86Q169.15 15.04 167.17 14.89L167.12 14.83L167.24 14.96Q163.99 14.72 162.13 14.26ZM163.43 23.79L163.42 23.77L163.51 23.87Q163.54 29.72 161.76 35.66L161.85 35.76L161.88 35.79Q160.59 36.06 158.00 37.09L158.04 37.13L157.91 36.99Q160.86 30.62 160.52 23.16L160.43 23.07L160.46 23.10Q160.18 15.77 156.86 9.26L156.81 9.21L156.93 9.32Q161.80 12.15 168.77 12.15L168.73 12.10L168.61 11.99Q174.43 12.17 174.70 15.71L174.53 15.55L174.53 15.55Q174.65 16.20 174.58 16.81L174.70 16.94L174.43 17.88L174.60 18.05Q173.73 21.94 171.60 23.65L171.54 23.60L171.55 23.60Q170.75 24.29 169.72 24.29L169.67 24.24L167.15 24.31L167.05 24.21Q172.83 31.63 177.36 36.19L177.29 36.12L177.36 36.19Q175.09 35.37 172.16 35.02L172.12 34.98L172.21 35.08Q168.35 31.02 163.44 23.79ZM172.10 35.46L172.03 35.39L172.23 35.29L173.55 36.60L173.61 36.66Q174.17 37.19 174.82 37.80L174.74 37.72L174.83 37.81Q178.33 38.39 181.91 40.25L181.87 40.21L181.99 40.33Q174.89 33.42 169.49 26.49L169.58 26.58L171.27 26.53L171.40 26.65Q174.43 26.60 175.76 22.07L175.79 22.10L175.73 22.03Q176.37 19.78 176.37 17.08L176.52 17.23L176.34 17.06Q176.48 14.91 174.77 14.26L174.64 14.13L174.68 14.18Q174.63 13.86 174.06 13.17L173.99 13.10L174.09 13.20Q172.32 11.66 168.67 11.59L168.70 11.62L168.66 11.58Q160.85 11.50 156.17 8.49L156.20 8.53L156.21 8.53Q159.80 15.20 160.14 22.89L160.23 22.98L160.28 23.04Q160.59 30.95 157.46 37.81L157.46 37.80L157.50 37.84Q158.68 37.19 159.48 36.89L159.40 36.81L158.54 39.22L158.59 39.27Q161.32 38.23 163.98 37.74L163.82 37.58L163.83 37.58Q165.22 32.58 165.41 27.36L165.37 27.32L165.42 27.37Q168.81 32.21 171.97 35.33ZM170.68 17.37L170.78 17.47L170.86 17.54Q170.80 17.72 170.80 18.06L170.71 17.97L170.89 18.72L170.71 18.54Q170.76 19.69 170.07 20.64L170.17 20.74L170.02 20.59Q169.50 21.45 168.59 21.64L168.68 21.72L168.61 21.66Q168.39 21.70 166.79 21.74L166.75 21.70L166.70 21.65Q166.14 21.70 165.30 21.58L165.44 21.72L165.29 21.57Q165.25 20.13 164.91 17.08L164.91 17.08L164.83 17.00Q166.29 17.25 166.98 17.25L167.00 17.27L166.92 17.19Q168.73 17.17 170.67 17.36Z"/><path d="M15 32 C90 23,94 20,189 13" stroke="#666" fill="none"/><path d="M1 11 C91 22,87 34,189 21" stroke="#777" fill="none"/><path fill="#222" d="M60.27 23.68L60.22 23.63L54.46 23.85L54.31 23.69Q51.41 23.77 48.48 23.69L48.48 23.69L48.51 23.72Q48.66 30.46 46.61 35.98L46.52 35.89L46.58 35.95Q44.78 36.47 43.02 37.16L42.92 37.05L43.00 37.13Q45.69 31.33 45.69 24.67L45.83 24.81L45.80 24.78Q45.88 16.37 41.77 9.32L41.61 9.17L41.68 9.24Q43.09 9.93 45.57 10.73L45.65 10.81L45.60 10.76Q47.88 15.98 48.42 20.85L48.26 20.70L48.34 20.77Q51.62 21.27 54.48 21.24L54.37 21.13L54.32 21.08Q57.07 21.17 60.39 20.90L60.36 20.88L60.30 20.81Q60.85 16.49 62.60 11.39L62.47 11.26L62.67 11.46Q64.43 10.86 66.68 10.02L66.80 10.15L66.74 10.09Q63.18 16.88 63.18 24.84L63.07 24.73L63.19 24.85Q63.08 30.94 65.44 36.27L65.45 36.28L65.47 36.30Q63.82 35.65 61.77 35.34L61.94 35.51L61.85 35.43Q60.19 30.42 60.31 23.72ZM61.59 35.77L61.65 35.84L61.53 35.71Q62.66 35.96 63.76 36.23L63.79 36.26L63.67 36.14Q64.03 36.88 64.67 38.36L64.79 38.47L64.75 38.44Q68.01 39.30 69.80 40.21L69.82 40.23L69.83 40.24Q65.42 34.12 65.11 25.86L65.07 25.81L65.01 25.75Q64.80 17.82 68.46 11.01L68.44 10.99L67.40 11.47L67.28 11.35Q66.85 11.64 66.24 11.79L66.29 11.85L66.23 11.78Q66.65 10.99 67.49 9.43L67.42 9.36L67.60 9.53Q64.76 10.39 62.13 10.88L62.13 10.89L62.21 10.96Q60.59 15.85 60.13 20.54L60.06 20.46L60.03 20.43Q57.70 20.80 55.26 20.80L55.12 20.66L55.18 20.72Q52.68 20.62 50.17 20.47L50.33 20.63L50.17 20.47Q50.03 17.29 48.93 13.21L48.93 13.21L48.84 13.13Q48.21 13.06 46.76 12.68L46.76 12.69L46.88 12.80Q46.43 11.52 45.97 10.49L45.90 10.41L45.88 10.40Q43.27 9.77 40.99 8.51L41.02 8.54L40.88 8.40Q45.54 15.92 45.54 24.71L45.42 24.59L45.46 24.63Q45.50 31.64 42.38 37.77L42.42 37.81L42.34 37.73Q43.14 37.53 44.47 36.96L44.54 37.03L44.43 36.92Q44.16 37.83 43.36 39.36L43.24 39.24L43.22 39.21Q46.21 38.40 48.46 37.98L48.38 37.90L48.30 37.83Q50.33 32.43 50.52 26.26L50.41 26.15L50.34 26.08Q51.98 26.05 55.18 26.01L55.31 26.14L55.23 26.07Q58.06 26.00 59.96 26.07L59.89 26.00L59.91 26.03Q60.32 31.91 61.65 35.84Z"/><path fill="#333" d="M81.81 24.05L81.86 24.10L81.87 24.12Q80.14 24.09 78.90 25.52L78.83 25.45L78.77 25.40Q77.49 26.78 77.30 28.68L77.42 28.80L77.45 28.83Q77.22 30.89 78.31 31.86L78.28 31.83L78.24 31.79Q79.33 32.76 81.42 32.65L81.41 32.64L81.39 32.62Q83.45 32.43 84.56 31.75L84.62 31.81L84.60 31.79Q85.83 30.78 85.83 29.22L85.72 29.10L85.80 29.19Q85.71 28.71 85.63 28.33L85.59 28.29L85.71 28.41Q85.72 26.66 84.61 25.31L84.68 25.38L84.59 25.29Q83.47 23.93 81.80 24.04ZM81.41 35.19L81.49 35.26L81.37 35.15Q77.11 35.26 75.70 34.50L75.71 34.51L75.70 34.51Q74.62 33.69 74.43 31.98L74.51 32.05L74.39 31.93Q74.43 31.33 74.47 30.61L74.49 30.62L74.36 30.50Q74.65 29.69 74.65 29.23L74.48 29.06L74.58 29.15Q75.03 26.30 75.19 25.61L75.19 25.62L75.20 25.63Q75.56 23.59 76.40 22.18L76.40 22.18L76.55 22.33Q79.16 17.90 85.10 11.54L85.09 11.53L85.12 11.56Q87.70 11.17 89.91 10.37L89.94 10.41L89.89 10.36Q83.11 17.89 79.91 22.11L79.97 22.18L79.92 22.12Q80.79 21.51 82.08 21.51L82.09 21.52L82.24 21.66Q85.46 21.58 86.99 23.52L86.94 23.47L86.97 23.50Q88.30 25.14 88.64 28.68L88.77 28.80L88.67 28.70Q88.83 29.51 88.83 30.12L88.68 29.97L88.80 30.09Q88.77 33.19 86.57 34.25L86.60 34.29L86.61 34.30Q85.30 34.81 81.42 35.20ZM83.83 37.72L83.70 37.59L83.68 37.57Q85.01 37.57 86.99 37.65L87.09 37.74L86.94 37.60Q88.69 37.79 90.25 37.06L90.20 37.01L90.19 37.00Q91.23 36.14 91.23 34.35L91.37 34.49L91.35 34.47Q91.30 33.93 91.13 32.94L91.22 33.02L91.11 32.92Q90.97 31.95 90.97 31.50L90.95 31.48L90.90 31.43Q90.11 26.79 88.51 24.89L88.52 24.90L88.59 24.97Q88.42 24.76 88.27 24.53L88.31 24.58L87.94 24.28L87.79 24.17L87.84 24.22Q87.47 23.70 86.86 22.75L87.03 22.91L87.02 22.91Q86.08 21.93 84.10 21.47L84.04 21.41L84.01 21.38Q85.20 19.75 88.17 16.06L88.16 16.05L92.43 10.81L92.46 10.83Q90.98 11.79 88.58 12.55L88.44 12.41L88.40 12.37Q89.44 11.50 91.22 9.52L91.18 9.47L91.17 9.47Q88.86 10.62 84.98 11.20L84.90 11.11L84.93 11.14Q79.23 17.06 76.26 22.01L76.26 22.01L76.22 21.97Q74.71 24.49 74.14 30.73L74.08 30.68L74.16 30.75Q74.07 31.31 74.15 32.27L74.09 32.21L74.12 32.24Q74.16 33.96 75.27 34.87L75.27 34.88L75.31 34.91Q75.79 35.16 75.75 35.20L75.71 35.16L75.74 35.19Q76.00 35.98 76.80 36.40L76.80 36.40L76.77 36.37Q78.25 37.09 80.19 37.28L80.14 37.23L80.17 37.26Q80.20 37.29 83.70 37.59ZM83.54 26.43L83.49 26.38L83.54 26.43Q84.03 26.23 84.98 26.73L84.96 26.71L84.97 26.71Q85.40 27.76 85.40 28.40L85.30 28.31L85.36 28.36Q85.47 30.15 84.52 31.14L84.56 31.18L84.53 31.15Q83.48 31.89 81.39 32.19L81.38 32.19L81.46 32.26Q79.97 32.22 79.44 31.96L79.47 31.99L79.46 31.98Q79.21 31.47 79.21 31.16L79.37 31.32L79.21 31.16Q79.15 28.05 82.08 26.76L81.95 26.63L82.01 26.69Q82.74 26.31 83.50 26.39Z"/><path fill="#333" d="M22.72 24.56L22.85 24.69L22.80 24.64Q22.87 28.97 22.14 33.12L22.10 33.07L22.07 33.04Q24.34 32.50 27.42 32.38L27.37 32.33L27.34 32.30Q28.73 32.56 29.80 31.55L29.81 31.56L29.82 31.57Q30.94 30.61 30.94 29.28L30.90 29.24L30.93 29.27Q30.93 28.97 30.89 28.70L30.85 28.65L30.86 28.67Q30.68 25.70 28.43 24.87L28.40 24.83L28.48 24.92Q27.59 24.49 26.91 24.56L27.05 24.70L26.97 24.63Q25.88 24.52 24.85 24.56L24.97 24.68L24.85 24.56Q23.87 24.69 22.85 24.69ZM21.59 14.22L21.50 14.13L21.60 14.23Q22.54 17.61 22.81 21.99L22.79 21.97L22.73 21.90Q24.22 22.06 26.89 22.10L26.77 21.98L26.84 22.06Q29.67 22.00 30.02 18.46L30.18 18.62L30.07 18.51Q30.24 16.55 28.83 15.71L28.88 15.75L28.98 15.85Q28.08 15.34 23.66 14.69L23.65 14.68L23.48 14.51Q22.47 14.42 21.56 14.19ZM18.00 37.16L17.92 37.08L17.93 37.09Q20.42 30.45 20.16 23.07L20.14 23.05L20.06 22.97Q19.77 15.67 16.83 9.20L16.97 9.33L16.88 9.24Q20.67 11.78 26.90 12.02L26.88 12.00L27.03 12.16Q33.12 12.27 33.46 15.16L33.48 15.18L33.44 15.14Q33.84 17.98 32.43 20.65L32.40 20.61L32.50 20.71Q31.64 22.10 30.04 22.79L30.10 22.84L30.16 22.91Q33.74 23.52 33.97 28.88L33.94 28.85L33.92 28.83Q34.02 29.96 33.95 31.37L33.87 31.29L33.88 31.30Q33.83 32.62 32.90 33.56L33.09 33.75L33.04 33.70Q32.13 34.66 30.80 34.81L30.69 34.70L30.71 34.72Q29.20 34.77 28.13 34.77L28.22 34.86L28.26 34.90Q22.44 34.79 17.91 37.08ZM30.74 37.42L30.82 37.50L30.63 37.31Q31.59 37.39 33.45 37.50L33.50 37.55L33.57 37.62Q35.04 37.72 36.14 36.84L36.13 36.83L36.09 36.79Q36.80 35.78 36.68 34.22L36.66 34.20L36.70 34.24Q36.62 33.29 35.90 29.82L35.91 29.83L35.91 29.83Q35.33 26.70 33.46 25.21L33.40 25.16L33.01 24.35L32.87 24.21Q34.65 22.90 35.22 19.13L35.15 19.06L35.15 19.06Q35.31 17.92 35.23 16.51L35.22 16.51L35.32 16.61Q35.34 15.37 34.24 14.53L34.11 14.40L34.12 14.42Q33.74 14.15 33.63 14.11L33.67 14.15L33.73 14.22Q33.51 13.73 32.67 12.93L32.61 12.86L32.67 12.93Q31.06 11.77 26.83 11.58L26.83 11.58L26.96 11.70Q20.35 11.46 16.35 8.56L16.30 8.51L16.29 8.50Q19.61 15.55 19.92 23.09L19.84 23.01L19.76 22.93Q20.19 30.86 17.37 37.79L17.35 37.77L19.34 36.75L19.50 36.91Q19.10 38.04 18.61 39.18L18.58 39.15L18.47 39.04Q22.90 37.31 27.93 37.31L27.84 37.22L27.81 37.19Q29.30 37.27 30.75 37.43ZM28.56 26.82L28.60 26.86L28.57 26.83Q29.30 26.76 30.21 27.22L30.18 27.19L30.19 27.20Q30.27 27.51 30.43 28.57L30.57 28.72L30.53 28.68Q30.60 29.93 29.67 30.98L29.78 31.09L29.71 31.02Q28.74 32.03 27.33 31.91L27.50 32.08L25.98 32.17L26.02 32.20Q25.23 32.21 24.50 32.32L24.41 32.23L24.38 32.19Q24.69 30.38 24.77 26.91L24.74 26.89L24.85 27.00Q25.50 26.92 26.75 26.88L26.82 26.95L26.79 26.92Q27.99 26.82 28.59 26.86ZM27.53 17.23L27.53 17.22L27.94 17.26L27.91 17.23Q28.08 17.16 28.27 17.20L28.45 17.39L28.73 17.29L29.11 17.47L29.61 17.44L29.70 17.53Q29.72 17.70 29.72 18.01L29.85 18.14L29.76 18.59L29.78 18.60Q29.69 19.77 28.82 20.70L28.98 20.87L28.96 20.85Q28.07 21.76 26.85 21.76L26.84 21.75L26.75 21.66Q25.79 21.73 25.79 21.73L25.69 21.63L25.81 21.75Q24.43 21.66 24.77 21.66L24.75 21.64L24.81 21.71Q24.80 20.21 24.50 17.16L24.49 17.16L24.45 17.12Q26.07 17.29 27.60 17.29Z"/></svg>